<?xml version="1.0" encoding="utf-8"?><svg xmlns="http://www.w3.org/2000/svg" xmlns:xlink="http://www.w3.org/1999/xlink"><symbol fill="none" viewBox="0 0 328 121" id="about-logo" xmlns="http://www.w3.org/2000/svg"><path d="M52.462 66.333h-7.71v36h7.71v-36z" fill="#fff"/><path d="M102.742 26.166v-7.5h-83.97v7.5h25.979v15h7.542v-15h9.721v76.167h40.728v-7.667H69.724v-68.5h33.018z" fill="#fff"/><path d="M48.606 57.333c2.037 0 3.688-1.641 3.688-3.666S50.642 50 48.605 50c-2.036 0-3.687 1.642-3.687 3.667s1.65 3.666 3.687 3.666z" fill="#fff"/><path d="M121.513 120.833H0V0h121.513v120.833zm-113.97-7.5H113.97V7.5H7.542v105.833zm143.635-31.5V58.5h-7.374V54h19.609v4.5h-7.542v23.333h-4.693zm27.823.334c-4.023 0-7.375-1.334-10.224-4.167-2.849-2.667-4.19-6.167-4.19-10.167s1.341-7.333 4.19-10.166c2.849-2.667 6.201-4.167 10.224-4.167 4.022 0 7.374 1.333 10.056 4.167 2.849 2.833 4.19 6.166 4.19 10.166s-1.341 7.334-4.19 10.167c-2.682 2.833-6.201 4.167-10.056 4.167zm0-4.334c2.681 0 5.028-1 6.872-2.833 1.843-1.833 2.681-4.167 2.681-7s-.838-5.167-2.681-7c-1.844-1.833-4.191-2.833-6.872-2.833-2.682 0-5.028 1-6.872 2.833-1.844 1.833-2.682 4.167-2.682 7s.838 5.167 2.682 7c1.844 1.833 4.023 2.833 6.872 2.833zm19.441 4V54h8.381c2.849 0 5.195.833 7.039 2.5 1.844 1.667 2.682 3.833 2.682 6.333 0 2.667-.838 4.667-2.682 6.334-1.844 1.666-4.19 2.5-7.039 2.5h-3.855v10.166h-4.526zm4.526-14.333h3.687c1.676 0 2.849-.333 3.855-1.167.838-.833 1.341-2 1.341-3.333 0-1.333-.503-2.5-1.341-3.333-.838-.834-2.179-1.334-3.855-1.334h-3.687V67.5zm18.101 14.333V54h4.526v23.333h11.732v4.5h-16.258zm20.616 0V54h16.592v4.5H246.21v7h9.721V70h-9.721v7.5h12.067V82h-16.592v-.167zm32.514.334L261.126 54h5.028l7.877 17.667L281.909 54h5.028l-12.738 28.167zm15.252-.334V54h16.593v4.5h-12.068v7h9.721V70h-9.721v7.5h12.068V82h-16.593v-.167zm22.124 0V54h4.526v23.333h11.732v4.5h-16.258zm-167.771 39.001v-22.5h6.536c2.179 0 4.023.5 5.196 1.667 1.341 1.166 1.844 2.666 1.844 4.5 0 1.5-.503 2.833-1.341 4-.838 1.166-2.347 1.833-4.19 2.166l8.045 10.334h-2.85l-7.877-10.334h-3.017v10.167h-2.346zm2.346-12.167h4.023c1.508 0 2.849-.333 3.519-1 .838-.666 1.174-1.666 1.174-3 0-1.333-.336-2.333-1.174-3-.838-.666-2.011-1-3.519-1h-4.023v8zm17.096 12.167v-22.5h12.906v2.167h-10.559v7.5h8.547v2.333h-8.547v8.167h10.559v2.166h-12.906v.167zm15.251 0l10.894-22.667 10.895 22.667h-2.515l-3.016-6.334h-10.727l-3.017 6.334h-2.514zm6.537-8.5h8.715l-4.358-9.167-4.357 9.167zm17.934 8.5v-22.5h2.346v20.167h10.392v2.333h-12.738zm26.815 0v-22.5h12.906v2.167H232.13v7.5h8.547v2.333h-8.547v8.167h10.559v2.166h-12.906v.167zm23.298.166c-1.508 0-2.849-.333-4.19-1-1.341-.666-2.347-1.5-3.017-2.5l1.844-1.5c.67.834 1.34 1.5 2.346 2s2.011.834 3.017.834c1.508 0 2.682-.334 3.52-1 .838-.667 1.34-1.5 1.34-2.667 0-1-.335-1.833-1.005-2.667-.671-.666-1.676-1.333-3.017-2l-2.179-1a9.147 9.147 0 01-3.687-2.666c-.838-1-1.173-2.167-1.173-3.667 0-1.667.67-3 1.843-4 1.174-1 2.85-1.5 4.526-1.5 2.514 0 4.525 1 6.033 2.833l-1.676 1.667c-1.173-1.5-2.681-2.167-4.525-2.167-1.173 0-2.011.334-2.849.834-.838.5-1.173 1.333-1.173 2.333 0 .833.335 1.667.838 2.333.502.667 1.508 1.334 2.681 1.834l2.179 1c1.676.833 3.017 1.666 3.855 2.666 1.006 1 1.341 2.167 1.341 3.667 0 1.833-.671 3.333-1.844 4.333-1.173 1.5-2.849 2-5.028 2zm15.083-.166v-20.167h-6.536v-2.333h15.587v2.333h-6.536v20.167h-2.515zm7.376 0l10.894-22.667 10.894 22.667h-2.514l-3.016-6.334h-10.727l-3.017 6.334h-2.514zm6.537-8.5h8.715l-4.358-9.167-4.357 9.167zm20.112 8.5v-20.167h-6.537v-2.333h15.587v2.333h-6.536v20.167h-2.514zm12.906 0v-22.5H328v2.167h-10.559v7.5h8.548v2.333h-8.548v8.167H328v2.166h-12.905v.167z" fill="#fff"/></symbol><symbol fill="none" viewBox="0 0 22 23" id="arrow" xmlns="http://www.w3.org/2000/svg"><path d="M1 22L21 2M6 1h15v15" stroke="#CFA672"/></symbol><symbol fill="none" viewBox="0 0 49 49" id="benefits-icon" xmlns="http://www.w3.org/2000/svg"><path d="M33.688 19.192L15.311 8.596m27.564 24.071V16.334a4.084 4.084 0 00-2.042-3.532L26.542 4.635a4.084 4.084 0 00-4.084 0L8.167 12.802a4.084 4.084 0 00-2.042 3.532v16.333a4.083 4.083 0 002.042 3.532l14.291 8.167a4.083 4.083 0 004.084 0l14.291-8.167a4.083 4.083 0 002.042-3.532z" stroke="#5F4D40" stroke-linecap="round" stroke-linejoin="round"/><path d="M6.676 14.21L24.5 24.52l17.823-10.31M24.5 45.08V24.5" stroke="#5F4D40" stroke-linecap="round" stroke-linejoin="round"/></symbol><symbol fill="none" viewBox="0 0 59 60" id="header-logo" xmlns="http://www.w3.org/2000/svg"><path d="M25.256 32.61h-3.712v17.429h3.712v-17.43z" fill="#CFA672"/><path d="M49.543 13.163v-3.63H9.037v3.63h12.507v7.262h3.712v-7.262h4.68V50.04h19.607v-3.712H33.648V13.163h15.895z" fill="#CFA672"/><path d="M23.48 28.333a1.775 1.775 0 100-3.55 1.775 1.775 0 000 3.55z" fill="#CFA672"/><path d="M58.5 59.076H0V.496h58.5v58.58zM3.631 55.445h51.238V4.126H3.631v51.319z" fill="#CFA672"/></symbol><symbol fill="none" viewBox="0 0 83 30" id="quiz-logo" xmlns="http://www.w3.org/2000/svg"><g clip-path="url(#ea)" fill="#CFA672"><path d="M13.275 16.446h-1.95v8.926h1.95v-8.926z"/><path d="M25.998 6.487v-1.86H4.75v1.86h6.574v3.72h1.908v-3.72h2.46v18.885h10.306V23.47h-8.355V6.487h8.355z"/><path d="M12.3 14.215a.921.921 0 00.932-.91.921.921 0 00-.933-.908.921.921 0 00-.933.909c0 .502.418.909.933.909z"/><path d="M30.749 29.959H0V0h30.749v29.959zm-28.84-1.86H28.84V1.86H1.91V28.1zm36.347-7.809v-5.786H36.39v-1.116h4.962v1.116h-1.909v5.785h-1.187zm7.04.082c-1.018 0-1.866-.33-2.587-1.033-.721-.661-1.06-1.53-1.06-2.52 0-.993.339-1.82 1.06-2.521.72-.662 1.569-1.034 2.587-1.034 1.018 0 1.866.331 2.545 1.034.72.702 1.06 1.528 1.06 2.52s-.34 1.818-1.06 2.52c-.679.703-1.57 1.034-2.545 1.034zm0-1.075c.678 0 1.272-.248 1.739-.702.466-.455.678-1.033.678-1.736 0-.702-.212-1.28-.678-1.735a2.434 2.434 0 00-1.74-.703 2.43 2.43 0 00-1.738.703c-.467.454-.679 1.033-.679 1.735 0 .703.212 1.281.679 1.736a2.366 2.366 0 001.739.703zm4.92.993v-6.902h2.12c.721 0 1.315.207 1.782.62.466.414.678.95.678 1.57 0 .662-.212 1.157-.678 1.57-.467.414-1.06.62-1.782.62h-.975v2.521h-1.145zm1.145-3.555h.933c.424 0 .721-.082.976-.289.211-.206.339-.496.339-.826 0-.33-.128-.62-.34-.827-.212-.206-.55-.33-.975-.33h-.933v2.272zm4.58 3.555v-6.902h1.145v5.786h2.97v1.115H55.94zm5.217 0v-6.902h4.199v1.116h-3.054v1.736h2.46v1.115h-2.46v1.86h3.054v1.116h-4.199v-.042zm8.228.082l-3.308-6.984h1.272l1.994 4.38 1.993-4.38h1.272l-3.223 6.984zm3.859-.082v-6.902h4.199v1.116H74.39v1.736h2.46v1.115h-2.46v1.86h3.054v1.116h-4.199v-.042zm5.599 0v-6.902h1.145v5.786h2.969v1.115h-4.114zM36.39 29.959V24.38h1.654c.551 0 1.018.124 1.315.413.339.29.466.662.466 1.116 0 .372-.127.703-.34.992-.211.289-.593.454-1.06.537L40.461 30h-.72l-1.994-2.562h-.764v2.52h-.593zm.593-3.017h1.018c.382 0 .721-.082.89-.248.213-.165.298-.413.298-.744 0-.33-.085-.578-.297-.743-.212-.166-.509-.248-.89-.248h-1.019v1.983zm4.327 3.017V24.38h3.265v.537h-2.672v1.86h2.163v.578h-2.163v2.025h2.672v.537H41.31v.042zm3.859 0l2.757-5.62 2.756 5.62h-.636l-.763-1.57h-2.715l-.763 1.57h-.636zm1.654-2.108h2.205l-1.102-2.273-1.103 2.273zm4.538 2.108V24.38h.594v5h2.63v.579H51.36zm6.786 0V24.38h3.265v.537H58.74v1.86h2.163v.578H58.74v2.025h2.672v.537h-3.265v.042zm5.896.041c-.382 0-.722-.083-1.06-.248-.34-.165-.595-.372-.764-.62l.466-.372c.17.207.34.372.594.496.254.124.509.207.764.207.381 0 .678-.083.89-.248.212-.165.34-.372.34-.661 0-.248-.085-.455-.255-.662-.17-.165-.424-.33-.764-.495l-.55-.248a2.315 2.315 0 01-.934-.661c-.212-.248-.297-.538-.297-.91 0-.413.17-.743.467-.991.297-.248.72-.372 1.145-.372.636 0 1.145.248 1.527.702l-.424.413c-.297-.371-.679-.537-1.145-.537-.297 0-.51.083-.722.207-.212.124-.296.33-.296.578 0 .207.084.414.212.579.127.165.381.33.678.454l.552.248c.424.207.763.414.975.662.255.248.34.537.34.909 0 .454-.17.826-.467 1.074-.297.372-.721.496-1.272.496zm3.817-.041v-5h-1.655v-.579h3.944v.579h-1.654v5h-.636zm1.866 0l2.756-5.62 2.757 5.62h-.636l-.763-1.57h-2.715l-.763 1.57h-.636zm1.654-2.108h2.205l-1.103-2.273-1.102 2.273zm5.089 2.108v-5h-1.654v-.579h3.944v.579h-1.654v5h-.636zm3.265 0V24.38H83v.537h-2.672v1.86h2.163v.578h-2.163v2.025H83v.537h-3.266v.042z"/></g><defs><clipPath id="ea"><path fill="#fff" d="M0 0h83v30H0z"/></clipPath></defs></symbol><symbol fill="none" viewBox="0 0 15 15" id="quiz-next" xmlns="http://www.w3.org/2000/svg"><path d="M.5 7.5l13.5.25M9.062 2.562L14.25 7.75l-5.188 5.19" stroke="#01244C"/></symbol><symbol fill="none" viewBox="0 0 15 15" id="quiz-prev" xmlns="http://www.w3.org/2000/svg"><path d="M14.5 7.5L1 7.75m4.938-5.188L.75 7.75l5.188 5.189" stroke="#68655F"/></symbol></svg>