<?xml version="1.0" encoding="utf-8"?><svg xmlns="http://www.w3.org/2000/svg" xmlns:xlink="http://www.w3.org/1999/xlink"><symbol fill="none" viewBox="0 0 328 121" id="about-logo" xmlns="http://www.w3.org/2000/svg"><path d="M52.462 66.333h-7.71v36h7.71v-36z" fill="#fff"/><path d="M102.742 26.166v-7.5h-83.97v7.5h25.979v15h7.542v-15h9.721v76.167h40.728v-7.667H69.724v-68.5h33.018z" fill="#fff"/><path d="M48.606 57.333c2.037 0 3.688-1.641 3.688-3.666S50.642 50 48.605 50c-2.036 0-3.687 1.642-3.687 3.667s1.65 3.666 3.687 3.666z" fill="#fff"/><path d="M121.513 120.833H0V0h121.513v120.833zm-113.97-7.5H113.97V7.5H7.542v105.833zm143.635-31.5V58.5h-7.374V54h19.609v4.5h-7.542v23.333h-4.693zm27.823.334c-4.023 0-7.375-1.334-10.224-4.167-2.849-2.667-4.19-6.167-4.19-10.167s1.341-7.333 4.19-10.166c2.849-2.667 6.201-4.167 10.224-4.167 4.022 0 7.374 1.333 10.056 4.167 2.849 2.833 4.19 6.166 4.19 10.166s-1.341 7.334-4.19 10.167c-2.682 2.833-6.201 4.167-10.056 4.167zm0-4.334c2.681 0 5.028-1 6.872-2.833 1.843-1.833 2.681-4.167 2.681-7s-.838-5.167-2.681-7c-1.844-1.833-4.191-2.833-6.872-2.833-2.682 0-5.028 1-6.872 2.833-1.844 1.833-2.682 4.167-2.682 7s.838 5.167 2.682 7c1.844 1.833 4.023 2.833 6.872 2.833zm19.441 4V54h8.381c2.849 0 5.195.833 7.039 2.5 1.844 1.667 2.682 3.833 2.682 6.333 0 2.667-.838 4.667-2.682 6.334-1.844 1.666-4.19 2.5-7.039 2.5h-3.855v10.166h-4.526zm4.526-14.333h3.687c1.676 0 2.849-.333 3.855-1.167.838-.833 1.341-2 1.341-3.333 0-1.333-.503-2.5-1.341-3.333-.838-.834-2.179-1.334-3.855-1.334h-3.687V67.5zm18.101 14.333V54h4.526v23.333h11.732v4.5h-16.258zm20.616 0V54h16.592v4.5H246.21v7h9.721V70h-9.721v7.5h12.067V82h-16.592v-.167zm32.514.334L261.126 54h5.028l7.877 17.667L281.909 54h5.028l-12.738 28.167zm15.252-.334V54h16.593v4.5h-12.068v7h9.721V70h-9.721v7.5h12.068V82h-16.593v-.167zm22.124 0V54h4.526v23.333h11.732v4.5h-16.258zm-167.771 39.001v-22.5h6.536c2.179 0 4.023.5 5.196 1.667 1.341 1.166 1.844 2.666 1.844 4.5 0 1.5-.503 2.833-1.341 4-.838 1.166-2.347 1.833-4.19 2.166l8.045 10.334h-2.85l-7.877-10.334h-3.017v10.167h-2.346zm2.346-12.167h4.023c1.508 0 2.849-.333 3.519-1 .838-.666 1.174-1.666 1.174-3 0-1.333-.336-2.333-1.174-3-.838-.666-2.011-1-3.519-1h-4.023v8zm17.096 12.167v-22.5h12.906v2.167h-10.559v7.5h8.547v2.333h-8.547v8.167h10.559v2.166h-12.906v.167zm15.251 0l10.894-22.667 10.895 22.667h-2.515l-3.016-6.334h-10.727l-3.017 6.334h-2.514zm6.537-8.5h8.715l-4.358-9.167-4.357 9.167zm17.934 8.5v-22.5h2.346v20.167h10.392v2.333h-12.738zm26.815 0v-22.5h12.906v2.167H232.13v7.5h8.547v2.333h-8.547v8.167h10.559v2.166h-12.906v.167zm23.298.166c-1.508 0-2.849-.333-4.19-1-1.341-.666-2.347-1.5-3.017-2.5l1.844-1.5c.67.834 1.34 1.5 2.346 2s2.011.834 3.017.834c1.508 0 2.682-.334 3.52-1 .838-.667 1.34-1.5 1.34-2.667 0-1-.335-1.833-1.005-2.667-.671-.666-1.676-1.333-3.017-2l-2.179-1a9.147 9.147 0 01-3.687-2.666c-.838-1-1.173-2.167-1.173-3.667 0-1.667.67-3 1.843-4 1.174-1 2.85-1.5 4.526-1.5 2.514 0 4.525 1 6.033 2.833l-1.676 1.667c-1.173-1.5-2.681-2.167-4.525-2.167-1.173 0-2.011.334-2.849.834-.838.5-1.173 1.333-1.173 2.333 0 .833.335 1.667.838 2.333.502.667 1.508 1.334 2.681 1.834l2.179 1c1.676.833 3.017 1.666 3.855 2.666 1.006 1 1.341 2.167 1.341 3.667 0 1.833-.671 3.333-1.844 4.333-1.173 1.5-2.849 2-5.028 2zm15.083-.166v-20.167h-6.536v-2.333h15.587v2.333h-6.536v20.167h-2.515zm7.376 0l10.894-22.667 10.894 22.667h-2.514l-3.016-6.334h-10.727l-3.017 6.334h-2.514zm6.537-8.5h8.715l-4.358-9.167-4.357 9.167zm20.112 8.5v-20.167h-6.537v-2.333h15.587v2.333h-6.536v20.167h-2.514zm12.906 0v-22.5H328v2.167h-10.559v7.5h8.548v2.333h-8.548v8.167H328v2.166h-12.905v.167z" fill="#fff"/></symbol><symbol fill="none" viewBox="0 0 22 23" id="arrow" xmlns="http://www.w3.org/2000/svg"><path d="M1 22L21 2M6 1h15v15" stroke="#CFA672"/></symbol><symbol fill="none" viewBox="0 0 49 49" id="benefits-icon" xmlns="http://www.w3.org/2000/svg"><path d="M33.688 19.192L15.311 8.596m27.564 24.071V16.334a4.084 4.084 0 00-2.042-3.532L26.542 4.635a4.084 4.084 0 00-4.084 0L8.167 12.802a4.084 4.084 0 00-2.042 3.532v16.333a4.083 4.083 0 002.042 3.532l14.291 8.167a4.083 4.083 0 004.084 0l14.291-8.167a4.083 4.083 0 002.042-3.532z" stroke="#5F4D40" stroke-linecap="round" stroke-linejoin="round"/><path d="M6.676 14.21L24.5 24.52l17.823-10.31M24.5 45.08V24.5" stroke="#5F4D40" stroke-linecap="round" stroke-linejoin="round"/></symbol></svg>