<svg xmlns="http://www.w3.org/2000/svg" width="21" height="21" fill="none"><path stroke="inherit" stroke-linecap="round" stroke-linejoin="round" stroke-width="1.333" d="M18.375 14.087v2.569a1.71 1.71 0 0 1-1.87 1.712A17 17 0 0 1 9.1 15.74a16.711 16.711 0 0 1-5.148-5.138A16.922 16.922 0 0 1 1.32 3.18a1.71 1.71 0 0 1 1.016-1.72c.218-.096.453-.146.692-.146H5.6a1.718 1.718 0 0 1 1.716 1.472c.109.822.31 1.63.6 2.406a1.71 1.71 0 0 1-.385 1.807L6.44 8.085c1.221 2.144 3 3.918 5.147 5.137l1.09-1.087a1.717 1.717 0 0 1 1.81-.385c.779.29 1.587.49 2.41.599a1.717 1.717 0 0 1 1.477 1.738Z"/></svg>