<svg xmlns="http://www.w3.org/2000/svg" width="83" height="31" fill="none"><g clip-path="url(#a)"><path fill="#CFA672" d="M13.275 16.994h-1.95v9.224h1.95v-9.224Z"/><path fill="#CFA672" d="M25.998 6.704V4.782H4.75v1.922h6.574v3.843h1.908V6.704h2.46v19.514h10.306v-1.965h-8.355V6.703h8.355Z"/><path fill="#CFA672" d="M12.3 14.689c.515 0 .932-.42.932-.94a.936.936 0 0 0-.933-.94.936.936 0 0 0-.933.94c0 .52.418.94.933.94Z"/><path fill="#CFA672" d="M30.749 30.957H0V0h30.749v30.957Zm-28.84-1.921H28.84V1.92H1.91v27.115Z"/><path fill="#fff" d="M38.256 20.966v-5.978H36.39v-1.153h4.962v1.153h-1.909v5.978h-1.187Zm7.04.085c-1.018 0-1.866-.342-2.587-1.067-.721-.684-1.06-1.58-1.06-2.605s.339-1.879 1.06-2.605c.72-.683 1.569-1.067 2.587-1.067 1.018 0 1.866.341 2.545 1.067.72.726 1.06 1.58 1.06 2.605s-.34 1.879-1.06 2.604c-.679.726-1.57 1.068-2.545 1.068Zm0-1.11c.678 0 1.272-.256 1.739-.726.466-.47.678-1.068.678-1.793 0-.726-.212-1.324-.678-1.794a2.394 2.394 0 0 0-1.74-.726c-.678 0-1.272.256-1.738.726-.467.47-.679 1.068-.679 1.794 0 .725.212 1.323.679 1.793.466.47 1.018.726 1.739.726Zm4.92 1.025v-7.131h2.12c.721 0 1.315.213 1.782.64.466.427.678.982.678 1.623 0 .683-.212 1.195-.678 1.622-.467.427-1.06.64-1.782.64h-.975v2.606h-1.145Zm1.145-3.673h.933c.424 0 .721-.085.976-.299a1.2 1.2 0 0 0 .339-.854 1.2 1.2 0 0 0-.34-.854c-.212-.213-.55-.341-.975-.341h-.933v2.348Zm4.58 3.673v-7.131h1.145v5.978h2.97v1.153H55.94Zm5.217 0v-7.131h4.199v1.153h-3.054v1.793h2.46v1.153h-2.46v1.921h3.054v1.153h-4.199v-.042Zm8.228.085-3.308-7.216h1.272l1.994 4.526 1.993-4.526h1.272l-3.223 7.216Zm3.86-.085v-7.131h4.199v1.153H74.39v1.793h2.46v1.153h-2.46v1.921h3.054v1.153h-4.199v-.042Zm5.598 0v-7.131h1.145v5.978h2.969v1.153h-4.114ZM36.39 30.957v-5.764h1.654c.551 0 1.018.128 1.315.427.339.299.466.683.466 1.153 0 .384-.127.726-.34 1.025-.211.299-.593.47-1.06.555L40.461 31h-.72l-1.994-2.647h-.764v2.604h-.593Zm.593-3.117h1.018c.382 0 .721-.085.89-.256.213-.17.298-.427.298-.768 0-.342-.085-.598-.297-.77-.212-.17-.509-.255-.89-.255h-1.019v2.05Zm4.327 3.117v-5.764h3.265v.555h-2.672v1.921h2.163v.598h-2.163v2.093h2.672v.555H41.31v.042Zm3.859 0 2.757-5.807 2.756 5.807h-.636l-.763-1.622h-2.715l-.763 1.622h-.636Zm1.654-2.177h2.205l-1.102-2.349-1.103 2.349Zm4.538 2.177v-5.764h.594v5.166h2.63v.598H51.36Zm6.786 0v-5.764h3.265v.555H58.74v1.921h2.163v.598H58.74v2.093h2.672v.555h-3.265v.042Zm5.896.043c-.382 0-.722-.085-1.06-.256-.34-.171-.595-.384-.764-.64l.466-.385c.17.213.34.384.594.512.254.128.509.214.764.214.381 0 .678-.085.89-.256a.831.831 0 0 0 .34-.683c0-.257-.085-.47-.255-.684-.17-.17-.424-.341-.764-.512l-.55-.256a2.318 2.318 0 0 1-.934-.683c-.212-.257-.297-.556-.297-.94 0-.427.17-.768.467-1.025.297-.256.72-.384 1.145-.384.636 0 1.145.256 1.527.726l-.424.427c-.297-.384-.679-.555-1.145-.555-.297 0-.51.085-.722.213-.212.128-.296.342-.296.598 0 .214.084.427.212.598.127.17.381.341.678.47l.552.256c.424.213.763.427.975.683.255.256.34.555.34.94 0 .47-.17.853-.467 1.11-.297.384-.721.512-1.272.512Zm3.817-.043v-5.166h-1.655v-.598h3.944v.598h-1.654v5.166h-.636Zm1.866 0 2.756-5.807 2.757 5.807h-.636l-.763-1.622h-2.715l-.763 1.622h-.636Zm1.654-2.177h2.205l-1.103-2.349-1.102 2.349Zm5.089 2.177v-5.166h-1.654v-.598h3.944v.598h-1.654v5.166h-.636Zm3.266 0v-5.764h3.266v.555H80.33v1.921h2.163v.598H80.33v2.093h2.672v.555h-3.266v.042Z"/></g><defs><clipPath id="a"><path fill="#fff" d="M0 0h83v31H0z"/></clipPath></defs></svg>