<svg xmlns="http://www.w3.org/2000/svg" width="83" height="30" fill="none"><g fill="#CFA672" clip-path="url(#a)"><path d="M13.275 16.446h-1.95v8.926h1.95v-8.926Z"/><path d="M25.998 6.487v-1.86H4.75v1.86h6.574v3.72h1.908v-3.72h2.46v18.885h10.306V23.47h-8.355V6.487h8.355Z"/><path d="M12.3 14.215a.921.921 0 0 0 .932-.91.921.921 0 0 0-.933-.908.921.921 0 0 0-.933.909c0 .502.418.909.933.909Z"/><path d="M30.749 29.959H0V0h30.749v29.959Zm-28.84-1.86H28.84V1.86H1.91V28.1Zm36.347-7.809v-5.786H36.39v-1.116h4.962v1.116h-1.909v5.785h-1.187Zm7.04.082c-1.018 0-1.866-.33-2.587-1.033-.721-.661-1.06-1.53-1.06-2.52 0-.993.339-1.82 1.06-2.521.72-.662 1.569-1.034 2.587-1.034 1.018 0 1.866.331 2.545 1.034.72.702 1.06 1.528 1.06 2.52s-.34 1.818-1.06 2.52c-.679.703-1.57 1.034-2.545 1.034Zm0-1.075c.678 0 1.272-.248 1.739-.702.466-.455.678-1.033.678-1.736 0-.702-.212-1.28-.678-1.735a2.434 2.434 0 0 0-1.74-.703 2.43 2.43 0 0 0-1.738.703c-.467.454-.679 1.033-.679 1.735 0 .703.212 1.281.679 1.736a2.366 2.366 0 0 0 1.739.703Zm4.92.993v-6.902h2.12c.721 0 1.315.207 1.782.62.466.414.678.95.678 1.57 0 .662-.212 1.157-.678 1.57-.467.414-1.06.62-1.782.62h-.975v2.521h-1.145Zm1.145-3.555h.933c.424 0 .721-.082.976-.289.211-.206.339-.496.339-.826 0-.33-.128-.62-.34-.827-.212-.206-.55-.33-.975-.33h-.933v2.272Zm4.58 3.555v-6.902h1.145v5.786h2.97v1.115H55.94Zm5.217 0v-6.902h4.199v1.116h-3.054v1.736h2.46v1.115h-2.46v1.86h3.054v1.116h-4.199v-.042Zm8.228.082-3.308-6.984h1.272l1.994 4.38 1.993-4.38h1.272l-3.223 6.984Zm3.859-.082v-6.902h4.199v1.116H74.39v1.736h2.46v1.115h-2.46v1.86h3.054v1.116h-4.199v-.042Zm5.599 0v-6.902h1.145v5.786h2.969v1.115h-4.114ZM36.39 29.959V24.38h1.654c.551 0 1.018.124 1.315.413.339.29.466.662.466 1.116 0 .372-.127.703-.34.992-.211.289-.593.454-1.06.537L40.461 30h-.72l-1.994-2.562h-.764v2.52h-.593Zm.593-3.017h1.018c.382 0 .721-.082.89-.248.213-.165.298-.413.298-.744 0-.33-.085-.578-.297-.743-.212-.166-.509-.248-.89-.248h-1.019v1.983Zm4.327 3.017V24.38h3.265v.537h-2.672v1.86h2.163v.578h-2.163v2.025h2.672v.537H41.31v.042Zm3.859 0 2.757-5.62 2.756 5.62h-.636l-.763-1.57h-2.715l-.763 1.57h-.636Zm1.654-2.108h2.205l-1.102-2.273-1.103 2.273Zm4.538 2.108V24.38h.594v5h2.63v.579H51.36Zm6.786 0V24.38h3.265v.537H58.74v1.86h2.163v.578H58.74v2.025h2.672v.537h-3.265v.042Zm5.896.041c-.382 0-.722-.083-1.06-.248-.34-.165-.595-.372-.764-.62l.466-.372c.17.207.34.372.594.496.254.124.509.207.764.207.381 0 .678-.083.89-.248.212-.165.34-.372.34-.661 0-.248-.085-.455-.255-.662-.17-.165-.424-.33-.764-.495l-.55-.248a2.315 2.315 0 0 1-.934-.661c-.212-.248-.297-.538-.297-.91 0-.413.17-.743.467-.991.297-.248.72-.372 1.145-.372.636 0 1.145.248 1.527.702l-.424.413c-.297-.371-.679-.537-1.145-.537-.297 0-.51.083-.722.207-.212.124-.296.33-.296.578 0 .207.084.414.212.579.127.165.381.33.678.454l.552.248c.424.207.763.414.975.662.255.248.34.537.34.909 0 .454-.17.826-.467 1.074-.297.372-.721.496-1.272.496Zm3.817-.041v-5h-1.655v-.579h3.944v.579h-1.654v5h-.636Zm1.866 0 2.756-5.62 2.757 5.62h-.636l-.763-1.57h-2.715l-.763 1.57h-.636Zm1.654-2.108h2.205l-1.103-2.273-1.102 2.273Zm5.089 2.108v-5h-1.654v-.579h3.944v.579h-1.654v5h-.636Zm3.265 0V24.38H83v.537h-2.672v1.86h2.163v.578h-2.163v2.025H83v.537h-3.266v.042Z"/></g><defs><clipPath id="a"><path fill="#fff" d="M0 0h83v30H0z"/></clipPath></defs></svg>