<svg width="24" height="19" viewBox="0 0 24 19" fill="none" xmlns="http://www.w3.org/2000/svg">
<path d="M22.5215 12.4332V12.0757C22.5215 11.1202 22.2069 10.2548 21.7015 9.63003L21.7013 2.70737C21.7013 1.76511 21.0399 1 20.2253 1L3.48553 1.00023C2.67082 1.00023 2.00955 1.76535 2.00955 2.7076V9.62728C1.50413 10.2521 1.1896 11.1207 1.1896 12.073V12.4305C0.767434 12.4538 0.428711 12.8915 0.428711 13.4228V16.2028C0.428711 16.7507 0.786361 17.1951 1.22729 17.1951H2.24361V17.9936C2.24361 18.2842 2.43453 18.5215 2.6684 18.5215H3.67929C3.91316 18.5215 4.10408 18.2842 4.10408 17.9936V17.1951H19.6042V17.9936C19.6042 18.2842 19.7951 18.5215 20.029 18.5215H21.0399C21.2738 18.5215 21.4647 18.2842 21.4647 17.9936V17.1951H22.481C22.9219 17.1951 23.2796 16.7507 23.2796 16.2028V13.4228C23.2822 12.8947 22.9435 12.457 22.5213 12.4335L22.5215 12.4332ZM2.4669 2.70702C2.4669 2.07895 2.92395 1.56758 3.48586 1.56758H20.2281C20.79 1.56758 21.247 2.07868 21.247 2.70702V9.16849C20.8142 8.821 20.2978 8.61731 19.744 8.61731H18.9858C18.8755 7.70512 18.2356 7.00015 17.4666 7.00015H13.7189C12.9499 7.00015 12.3126 7.7019 12.1997 8.61731H11.5114C11.4011 7.70512 10.7612 7.00015 9.99228 7.00015H6.24697C5.47802 7.00015 4.84075 7.7019 4.72783 8.61731H3.96958C3.41576 8.61731 2.89944 8.821 2.46657 9.16849L2.4669 2.70702ZM18.5182 8.62084H12.6651C12.7699 8.02285 13.2028 7.57162 13.7191 7.57162H17.4644C17.9805 7.57185 18.4136 8.02282 18.5184 8.62084H18.5182ZM11.0466 8.62084H5.1935C5.29834 8.02285 5.73118 7.57162 6.2475 7.57162H9.99281C10.5091 7.57185 10.942 8.02282 11.0468 8.62084H11.0466ZM1.64686 12.0757C1.64686 10.4853 2.69002 9.18901 3.96982 9.18901H19.7417C21.0215 9.18901 22.0647 10.4853 22.0647 12.0757V12.4332L1.64715 12.4329L1.64686 12.0757ZM3.64723 17.956H2.70087V17.1976H3.64723V17.956ZM21.0107 17.956H20.0643V17.1976H21.0107V17.956ZM22.8256 16.2052C22.8256 16.4392 22.6724 16.6296 22.4841 16.6296H19.6071L4.10457 16.6294H1.22761C1.03931 16.6294 0.886086 16.439 0.886086 16.205V13.4251C0.886086 13.1911 1.03931 13.0007 1.22761 13.0007H22.4839C22.6722 13.0007 22.8254 13.1911 22.8254 13.4251L22.8256 16.2052Z" fill="inherit" stroke="inherit" stroke-width="0.2"/>
</svg>
